<svg xmlns="http://www.w3.org/2000/svg" xmlns:xlink="http://www.w3.org/1999/xlink" width="500" zoomAndPan="magnify" viewBox="0 0 375 374.999991" height="500" preserveAspectRatio="xMidYMid meet" version="1.0"><path fill="#ffffff" d="M 370.363281 275.289062 C 373.097656 282.601562 374.695312 290.460938 374.9375 298.679688 C 374.996094 299.460938 374.996094 300.246094 374.996094 301.058594 C 374.996094 341.882812 341.878906 375 301.054688 375 C 134.785156 375 0 240.214844 0 73.941406 C 0 33.117188 33.117188 0 73.941406 0 C 74.753906 0 75.535156 0 76.320312 0.0585938 C 84.535156 0.300781 92.425781 1.898438 99.738281 4.636719 L 127.496094 124.820312 C 127.496094 124.878906 127.46875 124.910156 127.40625 124.9375 L 76.5 147.820312 L 76.347656 147.878906 C 99.710938 219.019531 155.976562 275.289062 227.117188 298.652344 L 227.179688 298.5 L 250.089844 247.558594 L 370.363281 275.289062 " fill-opacity="1" fill-rule="nonzero"/></svg>