<svg xmlns="http://www.w3.org/2000/svg" xmlns:xlink="http://www.w3.org/1999/xlink" width="500" zoomAndPan="magnify" viewBox="0 0 375 374.999991" height="500" preserveAspectRatio="xMidYMid meet" version="1.0"><defs><clipPath id="db4687f7c5"><path d="M 71.484375 20 L 303.234375 20 L 303.234375 356.671875 L 71.484375 356.671875 Z M 71.484375 20 " clip-rule="nonzero"/></clipPath></defs><g clip-path="url(#db4687f7c5)"><path fill="#ffffff" d="M 71.582031 137.824219 C 71.582031 203.433594 187.359375 356.605469 187.359375 356.605469 C 187.359375 356.605469 303.136719 203.433594 303.136719 137.824219 C 300.515625 -18.328125 74.214844 -18.359375 71.582031 137.824219 Z M 187.359375 196.539062 C 152.3125 196.539062 123.898438 168.085938 123.898438 133 C 123.898438 97.910156 152.3125 69.460938 187.359375 69.460938 C 222.40625 69.460938 250.820312 97.910156 250.820312 133 C 250.820312 168.085938 222.40625 196.539062 187.359375 196.539062 Z M 187.359375 196.539062 " fill-opacity="1" fill-rule="nonzero"/></g></svg>