<svg xmlns="http://www.w3.org/2000/svg" xmlns:xlink="http://www.w3.org/1999/xlink" width="500" zoomAndPan="magnify" viewBox="0 0 375 374.999991" height="500" preserveAspectRatio="xMidYMid meet" version="1.0"><defs><clipPath id="5528e2f944"><path d="M 5 37.5 L 370 37.5 L 370 186 L 5 186 Z M 5 37.5 " clip-rule="nonzero"/></clipPath><clipPath id="a4b0fdfd8c"><path d="M 0 97 L 375 97 L 375 337.5 L 0 337.5 Z M 0 97 " clip-rule="nonzero"/></clipPath></defs><g clip-path="url(#5528e2f944)"><path fill="#ffffff" d="M 187.5 185.25 L 370 71.25 C 368.894531 68.757812 367.613281 66.355469 366.164062 64.046875 C 364.710938 61.738281 363.101562 59.542969 361.332031 57.464844 C 359.5625 55.390625 357.65625 53.449219 355.609375 51.648438 C 353.558594 49.847656 351.394531 48.199219 349.109375 46.710938 C 346.824219 45.222656 344.441406 43.902344 341.96875 42.757812 C 339.492188 41.609375 336.949219 40.648438 334.335938 39.867188 C 331.71875 39.085938 329.0625 38.5 326.363281 38.101562 C 323.667969 37.707031 320.953125 37.503906 318.226562 37.5 L 56.773438 37.5 C 54.066406 37.507812 51.371094 37.703125 48.691406 38.097656 C 46.011719 38.488281 43.371094 39.070312 40.773438 39.839844 C 38.175781 40.609375 35.648438 41.558594 33.1875 42.691406 C 30.726562 43.824219 28.355469 45.125 26.082031 46.597656 C 23.808594 48.070312 21.648438 49.695312 19.609375 51.476562 C 17.566406 53.257812 15.660156 55.171875 13.894531 57.226562 C 12.128906 59.28125 10.515625 61.449219 9.058594 63.734375 C 7.601562 66.019531 6.316406 68.394531 5.199219 70.863281 Z M 187.5 185.25 " fill-opacity="1" fill-rule="nonzero"/></g><g clip-path="url(#a4b0fdfd8c)"><path fill="#ffffff" d="M 194.125 210.601562 C 193.132812 211.222656 192.070312 211.695312 190.945312 212.019531 C 189.816406 212.34375 188.667969 212.503906 187.492188 212.503906 C 186.320312 212.503906 185.171875 212.34375 184.042969 212.019531 C 182.917969 211.695312 181.855469 211.222656 180.863281 210.601562 L 0 97.113281 L 0 280.726562 C 0 282.582031 0.09375 284.4375 0.277344 286.289062 C 0.460938 288.136719 0.734375 289.976562 1.097656 291.796875 C 1.464844 293.621094 1.914062 295.421875 2.457031 297.199219 C 2.996094 298.980469 3.621094 300.726562 4.335938 302.445312 C 5.046875 304.160156 5.839844 305.839844 6.71875 307.480469 C 7.59375 309.117188 8.550781 310.710938 9.582031 312.253906 C 10.617188 313.800781 11.722656 315.292969 12.902344 316.730469 C 14.082031 318.167969 15.328125 319.542969 16.644531 320.855469 C 17.957031 322.171875 19.332031 323.417969 20.769531 324.597656 C 22.207031 325.777344 23.699219 326.882812 25.246094 327.917969 C 26.789062 328.949219 28.382812 329.90625 30.019531 330.78125 C 31.660156 331.65625 33.339844 332.453125 35.054688 333.164062 C 36.773438 333.878906 38.519531 334.503906 40.300781 335.042969 C 42.078125 335.585938 43.878906 336.035156 45.703125 336.402344 C 47.523438 336.765625 49.363281 337.039062 51.210938 337.222656 C 53.0625 337.40625 54.914062 337.5 56.773438 337.5 L 318.226562 337.5 C 320.082031 337.5 321.9375 337.40625 323.789062 337.222656 C 325.636719 337.039062 327.476562 336.765625 329.296875 336.402344 C 331.121094 336.035156 332.921875 335.585938 334.699219 335.042969 C 336.480469 334.503906 338.226562 333.878906 339.945312 333.164062 C 341.660156 332.453125 343.339844 331.660156 344.980469 330.78125 C 346.617188 329.90625 348.210938 328.949219 349.753906 327.917969 C 351.300781 326.882812 352.792969 325.777344 354.230469 324.597656 C 355.667969 323.417969 357.042969 322.171875 358.355469 320.855469 C 359.671875 319.542969 360.917969 318.167969 362.097656 316.730469 C 363.277344 315.292969 364.382812 313.800781 365.417969 312.253906 C 366.449219 310.710938 367.40625 309.117188 368.28125 307.480469 C 369.160156 305.839844 369.953125 304.160156 370.664062 302.445312 C 371.378906 300.726562 372.003906 298.980469 372.542969 297.199219 C 373.085938 295.421875 373.535156 293.621094 373.902344 291.796875 C 374.265625 289.976562 374.539062 288.136719 374.722656 286.289062 C 374.90625 284.4375 375 282.585938 375 280.726562 L 375 97.5625 Z M 194.125 210.601562 " fill-opacity="1" fill-rule="nonzero"/></g></svg>